<svg version="1.1" width="162" height="28" viewBox="0 0 162 28" xmlns="http://www.w3.org/2000/svg" xmlns:xlink="http://www.w3.org/1999/xlink" fill="none" overflow="hidden"><path d=" M 28.3137 3.05371 L 31.153 3.05371 C 31.2424 3.05371 31.3095 3.09842 31.3095 3.21021 L 31.3095 6.0747 C 31.3095 6.1641 31.2424 6.2312 31.153 6.2312 L 28.3137 6.2312 C 28.2243 6.2312 28.1572 6.1641 28.1572 6.0747 L 28.1572 3.21021 C 28.1572 3.12078 28.2243 3.05371 28.3137 3.05371 Z" fill="#2F3337"/><path d=" M 40.136 13.1939 C 39.4453 13.1224 38.8021 13.0557 38.3058 12.9565 C 37.3669 12.7776 37.0762 12.4199 37.0762 11.861 C 37.0762 11.0115 37.8587 10.4302 39.3566 10.4302 C 40.8992 10.4302 42.2853 10.9891 43.3137 11.861 C 43.3808 11.9281 43.4702 11.9281 43.5373 11.8387 L 45.214 9.8713 C 45.2811 9.8042 45.2811 9.7148 45.1917 9.6477 C 44.3421 8.8876 42.643 7.8145 39.7367 7.8145 C 36.4726 7.8145 34.2817 9.3571 34.2817 12.0846 C 34.2817 14.0743 35.3548 15.0133 36.7856 15.5051 C 37.7336 15.8211 38.6732 15.9007 39.5784 15.9774 C 40.1461 16.0255 40.7003 16.0724 41.2345 16.1758 C 42.2853 16.3547 42.6207 16.7794 42.6207 17.4501 C 42.6207 18.3667 41.7935 18.9257 40.1614 18.9257 C 38.2611 18.9257 36.808 18.322 35.6678 17.2266 C 35.6007 17.1595 35.4889 17.1371 35.4219 17.2266 L 33.7898 19.1939 C 33.7859 19.2059 33.7812 19.2179 33.7765 19.2297 C 33.7551 19.2842 33.7347 19.3361 33.7898 19.3728 C 34.617 20.2223 36.3832 21.519 39.8932 21.519 C 43.962 21.519 45.5717 19.5516 45.5717 17.1819 C 45.4823 14.6779 43.7832 13.7613 42.3077 13.4707 C 41.6053 13.3461 40.8455 13.2674 40.136 13.1939 Z" fill="#2F3337"/><path d=" M 31.0989 8.0997 L 28.3952 8.0997 C 28.3058 8.0997 28.2387 8.1668 28.2387 8.2562 L 28.2312 21.0498 C 28.2312 21.1393 28.2982 21.2063 28.3877 21.2063 L 31.0914 21.2063 C 31.1808 21.2063 31.2479 21.1393 31.2479 21.0498 L 31.2554 8.2562 C 31.2554 8.1668 31.2107 8.0997 31.0989 8.0997 Z" fill="#2F3337"/><path d=" M 55.4781 7.77051 C 53.6225 7.77051 52.214 8.39651 51.2527 9.42491 L 51.2527 8.23931 C 51.2527 8.14991 51.1857 8.08291 51.0962 8.08291 L 48.5476 8.08291 C 48.4582 8.08291 48.3911 8.14991 48.3911 8.23931 L 48.3911 26.5946 C 48.3911 26.6841 48.4582 26.7511 48.5476 26.7511 L 51.2304 26.7511 C 51.3198 26.7511 51.3869 26.6841 51.3869 26.5946 L 51.3869 19.9548 C 52.3482 20.8937 53.6896 21.4303 55.5004 21.4303 C 59.4128 21.4303 62.0062 18.4345 62.0062 14.5669 C 61.9838 10.7886 59.4128 7.77051 55.4781 7.77051 Z M 54.9863 18.6581 C 52.4376 18.6581 51.1409 16.8472 51.1409 14.6116 C 51.1409 12.3983 52.4376 10.6097 54.9863 10.6097 C 57.3784 10.6097 58.8092 12.4206 58.8092 14.6116 C 58.8092 16.8472 57.3784 18.6581 54.9863 18.6581 Z" fill="#2F3337" fill-rule="evenodd" clip-rule="evenodd"/><path d=" M 71.0769 7.8145 C 71.7029 7.8145 72.3065 7.9486 72.7536 8.1051 C 72.8431 8.1275 72.8431 8.1945 72.8431 8.3287 L 72.1053 11.0785 C 72.0829 11.168 72.0159 11.1903 71.9264 11.168 C 71.457 11.0115 70.9651 10.922 70.5627 10.922 C 68.6624 10.922 67.5222 12.487 67.5222 14.2979 L 67.5222 21.0495 C 67.5222 21.139 67.4551 21.206 67.3657 21.206 L 64.6829 21.206 C 64.5935 21.206 64.5265 21.139 64.5265 21.0495 L 64.5265 8.2598 C 64.5265 8.1704 64.5935 8.1033 64.6829 8.1033 L 67.2316 8.1033 C 67.321 8.1033 67.3881 8.1704 67.3881 8.2598 L 67.3881 9.8713 C 68.3494 8.284 69.8249 7.8145 71.0769 7.8145 Z" fill="#2F3337"/><path d=" M 107.7 8.11279 L 105.152 8.11279 C 105.062 8.11279 104.995 8.17989 104.995 8.26929 L 104.995 9.43499 C 104.011 8.40659 102.625 7.78059 100.77 7.78059 C 96.8574 7.78059 94.264 10.9126 94.264 14.7356 C 94.264 18.5809 96.8574 21.599 100.77 21.599 C 102.558 21.599 103.922 21.0401 104.883 20.1235 L 104.883 21.3754 C 104.883 23.6782 103.117 24.5724 101.508 24.5724 C 99.9873 24.5724 98.5788 23.8346 97.8187 22.3591 C 97.7964 22.2697 97.6622 22.225 97.5952 22.2697 L 95.0912 23.4099 C 95.0242 23.4322 95.0018 23.544 95.0242 23.5887 C 95.7172 25.2208 97.6175 27.2552 101.508 27.2552 C 105.711 27.2552 107.879 24.6395 107.879 21.3754 L 107.879 8.26929 C 107.857 8.17989 107.79 8.11279 107.7 8.11279 Z M 101.262 18.8044 C 98.8695 18.8044 97.4387 16.9936 97.4387 14.7579 C 97.4387 12.5446 98.8695 10.6199 101.262 10.6199 C 103.81 10.6199 105.107 12.567 105.107 14.7579 C 105.107 16.9936 103.81 18.8044 101.262 18.8044 Z" fill="#2F3337" fill-rule="evenodd" clip-rule="evenodd"/><path d=" M 74.765 8.1293 L 77.4477 8.1293 C 77.5372 8.1293 77.6042 8.1964 77.6042 8.2858 L 77.6042 21.087 C 77.6042 21.1764 77.5372 21.2435 77.4477 21.2435 L 74.765 21.2435 C 74.6755 21.2435 74.6085 21.1764 74.6085 21.087 L 74.6085 8.2858 C 74.6085 8.1964 74.6755 8.1293 74.765 8.1293 Z" fill="#2F3337"/><path d=" M 87.3773 7.8573 C 85.7304 7.8573 84.4128 8.3816 83.4685 9.299 L 83.4685 8.2762 C 83.4685 8.1888 83.4026 8.1233 83.3148 8.1233 L 80.8114 8.1233 C 80.7236 8.1233 80.6577 8.1888 80.6577 8.2762 L 80.6577 21.087 C 80.6577 21.1744 80.7236 21.2399 80.8114 21.2399 L 83.4466 21.2399 C 83.5344 21.2399 83.6003 21.1744 83.6003 21.087 L 83.6003 13.9001 C 83.6003 12.1744 84.5226 10.6097 86.4331 10.6097 C 88.0361 10.6097 89.1121 11.7593 89.1121 13.6817 L 89.1121 21.087 C 89.1121 21.1744 89.178 21.2399 89.2659 21.2399 L 91.901 21.2399 C 91.9889 21.2399 92.0547 21.1744 92.0547 21.087 L 92.0547 12.9608 C 92.0328 10.2958 90.847 7.8573 87.3773 7.8573 Z" fill="#2F3337"/><path d=" M 74.7059 3.06226 L 77.5346 3.06226 C 77.624 3.06226 77.6911 3.10697 77.6911 3.21875 L 77.6911 6.08321 C 77.6911 6.17271 77.624 6.23971 77.5346 6.23971 L 74.7059 6.23971 C 74.6164 6.23971 74.5494 6.17271 74.5494 6.08321 L 74.5494 3.21875 C 74.5494 3.12933 74.6164 3.06226 74.7059 3.06226 Z" fill="#2F3337"/><path d=" M 9.53966 9.0431 L 9.56144 9.0431 L 11.8484 9.0431 L 11.8702 9.0431 C 12.2622 9.0431 12.5454 8.7599 12.5454 8.3678 L 12.5454 3.46719 C 12.5454 3.07514 12.2622 2.79199 11.8702 2.79199 L 11.8484 2.79199 L 9.56144 2.79199 L 9.53966 2.79199 C 9.14761 2.79199 8.86446 3.07514 8.86446 3.46719 L 8.86446 8.3678 C 8.84268 8.7817 9.12583 9.0431 9.53966 9.0431 Z" fill="#0090DD"/><path d=" M 6.46699 11.6577 L 6.48877 11.6359 L 7.90451 9.8499 L 7.92629 9.8281 C 8.16588 9.5232 8.12232 9.1311 7.81739 8.8698 L 3.98399 5.8205 C 3.67906 5.5809 3.28701 5.6245 3.02564 5.9294 L 3.00386 5.9512 L 1.58812 7.7372 L 1.56633 7.759 C 1.32675 8.0639 1.37031 8.4559 1.67524 8.7173 L 5.50864 11.7666 C 5.83535 12.0062 6.2274 11.9626 6.46699 11.6577 Z" fill="#0090DD"/><path d=" M 6.5982 15.6652 L 6.5982 15.6435 L 6.09725 13.4218 L 6.09725 13.4001 C 6.01012 13.008 5.68341 12.812 5.29136 12.8991 L 0.521388 13.9881 C 0.129335 14.0753 -0.0666883 14.402 0.0204345 14.794 L 0.0204345 14.8158 L 0.521388 17.0374 L 0.521388 17.0592 C 0.60851 17.4513 0.935223 17.6473 1.32728 17.5602 L 6.09725 16.4711 C 6.4893 16.384 6.68532 16.0573 6.5982 15.6652 Z" fill="#0090DD"/><path d=" M 9.82091 18.0614 L 9.79913 18.0396 L 7.75174 17.0595 L 7.72996 17.0377 C 7.35969 16.8635 6.98942 16.9941 6.83695 17.3644 L 4.72422 21.7641 C 4.54998 22.1344 4.68066 22.5047 5.05093 22.6571 L 5.07272 22.6789 L 7.1201 23.659 L 7.14188 23.6808 C 7.51215 23.8551 7.88242 23.7244 8.03489 23.3541 L 10.1476 18.9544 C 10.3001 18.6059 10.1694 18.2356 9.82091 18.0614 Z" fill="#0090DD"/><path d=" M 13.6997 17.0592 L 13.6779 17.081 L 11.6305 18.0611 L 11.6087 18.0829 C 11.2385 18.2571 11.1296 18.6274 11.282 18.9977 L 13.4165 23.3974 C 13.5908 23.7676 13.9611 23.8765 14.3313 23.7241 L 14.3531 23.7023 L 16.4005 22.7222 L 16.4223 22.7004 C 16.7925 22.5261 16.9015 22.1559 16.749 21.7856 L 14.6145 17.3859 C 14.4185 17.0156 14.0482 16.8849 13.6997 17.0592 Z" fill="#0090DD"/><path d=" M 15.3109 13.3786 L 15.3109 13.4003 L 14.81 15.622 L 14.81 15.6438 C 14.7229 16.0358 14.9189 16.3625 15.3109 16.4496 L 20.0809 17.5387 C 20.473 17.6258 20.7997 17.4298 20.8868 17.0377 L 20.8868 17.0159 L 21.3878 14.7943 L 21.3878 14.7725 C 21.4749 14.3805 21.2789 14.0538 20.8868 13.9666 L 16.1168 12.8776 C 15.7466 12.7905 15.4198 12.9865 15.3109 13.3786 Z" fill="#0090DD"/><path d=" M 13.4589 9.8281 L 13.4807 9.8499 L 14.8964 11.6359 L 14.9182 11.6577 C 15.1578 11.9626 15.5499 12.0062 15.8766 11.7666 L 19.71 8.7173 C 20.0149 8.4777 20.0585 8.0857 19.8189 7.759 L 19.7971 7.7372 L 18.3813 5.9512 L 18.3596 5.9294 C 18.12 5.6245 17.7279 5.5809 17.4012 5.8205 L 13.5678 8.8698 C 13.2629 9.1311 13.2193 9.5014 13.4589 9.8281 Z" fill="#0090DD"/><path d=" M 115.214 21.501 L 115.214 10.1993 L 112.368 10.1993 L 112.368 8.0785 L 115.214 8.0785 L 115.214 5.3672 C 115.214 4.025 115.59 2.99592 116.342 2.28006 C 117.093 1.5642 118.086 1.20627 119.321 1.20627 C 120.055 1.20627 120.753 1.32259 121.415 1.55525 L 121.415 3.59546 C 121.004 3.41649 120.449 3.32701 119.751 3.32701 C 118.981 3.32701 118.418 3.49703 118.06 3.83706 C 117.702 4.1771 117.523 4.7677 117.523 5.6088 L 117.523 8.0785 L 121.415 8.0785 L 121.415 10.1993 L 117.523 10.1993 L 117.523 21.501 L 115.214 21.501 Z M 123.944 21.501 L 123.944 8.0785 L 126.252 8.0785 L 126.252 10.6825 C 126.503 9.8593 126.986 9.1971 127.702 8.696 C 128.436 8.1949 129.205 7.9443 130.011 7.9443 C 130.404 7.9443 130.753 7.9801 131.058 8.0517 L 131.058 10.4409 C 130.735 10.2977 130.315 10.2261 129.796 10.2261 C 128.865 10.2261 128.042 10.6288 127.326 11.4342 C 126.61 12.2395 126.252 13.3759 126.252 14.8435 L 126.252 21.501 L 123.944 21.501 Z M 139.209 21.7694 C 137.15 21.7694 135.477 21.1073 134.189 19.7829 C 132.9 18.4586 132.256 16.7942 132.256 14.7898 C 132.256 12.8032 132.909 11.1478 134.215 9.8235 C 135.522 8.4812 137.195 7.8101 139.235 7.8101 C 141.043 7.8101 142.555 8.4186 143.772 9.6356 C 145.007 10.8346 145.624 12.4722 145.624 14.5482 C 145.624 14.8166 145.615 15.0493 145.598 15.2461 L 134.591 15.2461 C 134.627 16.4989 135.074 17.5458 135.933 18.387 C 136.81 19.2281 137.911 19.6487 139.235 19.6487 C 141.114 19.6487 142.51 18.8702 143.423 17.3132 L 145.249 18.5749 C 143.942 20.7046 141.929 21.7694 139.209 21.7694 Z M 134.752 13.367 L 143.262 13.367 C 143.083 12.2932 142.609 11.4431 141.839 10.8167 C 141.088 10.1724 140.193 9.8503 139.155 9.8503 C 138.099 9.8503 137.15 10.1724 136.309 10.8167 C 135.486 11.4431 134.967 12.2932 134.752 13.367 Z M 154.807 21.7694 C 152.749 21.7694 151.075 21.1073 149.787 19.7829 C 148.498 18.4586 147.854 16.7942 147.854 14.7898 C 147.854 12.8032 148.507 11.1478 149.814 9.8235 C 151.12 8.4812 152.793 7.8101 154.834 7.8101 C 156.641 7.8101 158.153 8.4186 159.37 9.6356 C 160.605 10.8346 161.223 12.4722 161.223 14.5482 C 161.223 14.8166 161.214 15.0493 161.196 15.2461 L 150.19 15.2461 C 150.225 16.4989 150.673 17.5458 151.532 18.387 C 152.409 19.2281 153.509 19.6487 154.834 19.6487 C 156.713 19.6487 158.109 18.8702 159.021 17.3132 L 160.847 18.5749 C 159.54 20.7046 157.527 21.7694 154.807 21.7694 Z M 150.351 13.367 L 158.86 13.367 C 158.681 12.2932 158.207 11.4431 157.438 10.8167 C 156.686 10.1724 155.791 9.8503 154.753 9.8503 C 153.697 9.8503 152.749 10.1724 151.908 10.8167 C 151.084 11.4431 150.565 12.2932 150.351 13.367 Z" fill="#0090DD"/></svg>